:SAMPLES-PER-SECOND 30
:FULLY-SPECIFIED
:DEGREES
77
root  -7.41509 34.2412 -15.751 10.6042 -76.4005 -24.9643
RightUpLeg  -0.685781 -22.5598 -8.20891
RightLeg  89.1454 0.397735 -1.80326
RightFoot  18.8707 -3.6206 13.8621
RightToes  0.00048216 0.542163 -0.142577
Spine  12.6169 11.4804 11.5584
Spine1  4.48631 18.2363 -23.816
HEad  -17.2531 -25.6586 19.3299
LeftShoulder1  5.41078 -9.2974 -36.1692
LeftArm  -38.3841 23.8361 -17.1447
LeftForeArm  118.095 -80.364 -102.896
LeftHand  -0.25398 0.0180481 5.50724
RightShoulder  5.05833 13.0279 24.4405
RightArm  15.2515 31.7839 57.5957
RightForeArm  5.27162 46.6761 11.4737
RightHand  -6.29062 15.1065 -35.0122
LeftUpLeg  -28.1278 5.92827 -15.4149
LeftLeg  41.3148 5.17116 5.22871
LeftFoot  0.254151 -2.58651 24.9747
LeftToes  1.0625e-005 4.65855e-005 -8.18498e-006
78
root  -9.19921 34.7994 -15.9642 -0.651322 -66.0932 -16.0519
RightUpLeg  -20.7038 -22.9343 -6.63444
RightLeg  101.316 -0.0412533 2.00365
RightFoot  14.4038 -3.03842 13.6837
RightToes  0.00048216 0.542163 -0.142577
Spine  15.1958 8.91833 9.23529
Spine1  5.88136 14.835 -18.0377
HEad  -18.667 -26.7047 19.53
LeftShoulder1  5.88975 -10.8228 -35.0719
LeftArm  -33.6942 16.8344 -21.4907
LeftForeArm  164.307 -74.3385 -144.299
LeftHand  -0.25398 0.0180481 5.50724
RightShoulder  4.7709 12.2942 24.0156
RightArm  9.81168 32.0275 48.4412
RightForeArm  -5.02605 35.6147 8.29059
RightHand  -7.47776 17.3705 -37.2772
LeftUpLeg  -22.3425 -1.26393 -14.4576
LeftLeg  43.7504 4.18676 4.67409
LeftFoot  -3.7022 -1.65863 24.7129
LeftToes  1.0625e-005 4.65855e-005 -8.18498e-006
79
root  -10.8081 36.232 -16.0647 3.2309 -58.2179 -24.0306
RightUpLeg  -36.8274 -17.1535 -6.54789
RightLeg  102.196 -0.154282 1.96872
RightFoot  12.2065 -2.87364 14.1317
RightToes  0.00048216 0.542163 -0.142577
Spine  17.7411 7.06535 11.3363
Spine1  8.27013 12.3332 -11.4073
HEad  -19.9526 -27.0325 17.6711
LeftShoulder1  5.70684 -11.6735 -31.536
LeftArm  -33.5856 14.2972 -18.2246
LeftForeArm  -175.067 -63.1526 -162.17
LeftHand  -0.25398 0.0180481 5.50724
RightShoulder  4.24444 11.1112 22.8069
RightArm  0.128631 30.5702 38.096
RightForeArm  -7.86622 26.081 6.08103
RightHand  -7.76909 17.995 -37.6314
LeftUpLeg  -13.2595 -4.88463 -8.67821
LeftLeg  40.4439 0.623264 1.0507
LeftFoot  -5.17072 -1.303 24.1427
LeftToes  1.0625e-005 4.65855e-005 -8.18498e-006
80
root  -12.3012 38.3005 -16.1359 5.06326 -50.7099 -31.0978
RightUpLeg  -44.6881 -11.1033 -10.5119
RightLeg  97.1682 0.329809 -0.251847
RightFoot  10.616 -2.73054 14.3824
RightToes  0.00048216 0.542163 -0.142577
Spine  21.5206 5.00609 13.8648
Spine1  8.94436 9.32732 -4.4077
HEad  -20.7345 -26.3103 15.0241
LeftShoulder1  4.75486 -10.7998 -27.083
LeftArm  -43.0279 17.0394 -8.67603
LeftForeArm  -179.765 -55.7506 -166.354
LeftHand  -0.25398 0.0180481 5.50724
RightShoulder  3.83412 10.0059 22.1173
RightArm  -11.0277 26.4949 27.5042
RightForeArm  -7.24697 19.0484 5.349
RightHand  -8.3147 19.0991 -38.3646
LeftUpLeg  -2.69117 -7.4559 -1.06555
LeftLeg  32.2774 -4.30632 -2.55751
LeftFoot  0.0196478 -2.20773 22.2465
LeftToes  1.0625e-005 4.65855e-005 -8.18498e-006
81
root  -13.6777 40.6496 -16.2122 5.2659 -41.1612 -34.9826
RightUpLeg  -48.7083 -8.54329 -18.3573
RightLeg  90.3073 0.427352 -4.00283
RightFoot  13.8512 -3.07719 14.1448
RightToes  0.00048216 0.542163 -0.142577
Spine  26.2012 2.01161 16.0657
Spine1  4.56981 5.70132 1.81065
HEad  -19.5613 -24.8757 12.0989
LeftShoulder1  3.70457 -8.83037 -23.7861
LeftArm  -52.2068 21.6864 2.12239
LeftForeArm  163.887 -59.2049 -162.701
LeftHand  -0.25398 0.0180481 5.50724
RightShoulder  3.61819 9.10542 22.4518
RightArm  -17.0409 18.328 17.5366
RightForeArm  -12.5421 15.4571 6.12495
RightHand  -8.94299 20.0393 -39.6364
LeftUpLeg  3.02981 -7.65082 6.83553
LeftLeg  24.2003 -7.53857 -3.42803
LeftFoot  11.4566 -3.1423 15.4546
LeftToes  1.0625e-005 4.65855e-005 -8.18498e-006
